<?xml version="1.0" standalone="no"?>
<!DOCTYPE svg PUBLIC "-//W3C//DTD SVG 20010904//EN"
 "http://www.w3.org/TR/2001/REC-SVG-20010904/DTD/svg10.dtd">
<svg version="1.0" xmlns="http://www.w3.org/2000/svg"
 width="512.000000pt" height="512.000000pt" viewBox="0 0 512.000000 512.000000"
 preserveAspectRatio="xMidYMid meet">
<metadata>
Created by potrace 1.11, written by Peter Selinger 2001-2013
</metadata>
<g transform="translate(0.000000,512.000000) scale(0.100000,-0.100000)"
fill="#000000" stroke="none">
<path d="M1764 5019 c-292 -85 -482 -186 -635 -339 -163 -163 -272 -382 -314
-635 -3 -16 -8 -43 -11 -60 -4 -16 -8 -179 -9 -361 -4 -427 -5 -449 -25 -514
-50 -166 -119 -209 -339 -213 l-126 -2 -1 -320 c0 -176 1 -325 3 -331 3 -7 45
-11 122 -12 64 -1 129 -6 144 -11 15 -6 27 -8 27 -5 0 8 56 -24 88 -50 36 -31
76 -112 91 -186 7 -33 13 -204 15 -430 2 -206 6 -385 9 -396 3 -12 8 -39 11
-60 49 -322 214 -595 466 -770 116 -80 271 -150 460 -207 142 -43 162 -46 166
-27 1 8 43 134 93 279 50 145 91 266 91 270 0 4 -39 20 -87 35 -228 74 -324
160 -383 346 -37 116 -43 187 -45 565 -3 401 -10 475 -60 620 -42 121 -108
235 -186 318 -29 32 -36 44 -26 52 49 39 177 226 177 259 0 6 4 16 9 22 10 11
47 122 60 184 20 91 24 173 26 520 2 364 7 426 46 549 62 196 159 283 392 351
42 13 77 26 77 30 0 8 -188 562 -192 565 -2 2 -62 -14 -134 -36z"/>
<path d="M3115 4774 c-54 -157 -96 -287 -94 -288 2 -2 38 -14 79 -26 224 -65
326 -160 390 -359 10 -32 21 -76 24 -97 4 -22 9 -54 12 -72 4 -18 8 -198 9
-400 1 -235 7 -394 15 -442 31 -190 121 -374 237 -488 19 -19 33 -37 31 -41
-2 -5 -27 -35 -57 -69 -55 -63 -109 -146 -137 -210 -23 -52 -62 -176 -69 -214
-3 -18 -8 -46 -11 -63 -3 -16 -7 -190 -9 -386 -4 -469 -12 -534 -85 -685 -65
-134 -151 -200 -344 -259 -47 -15 -86 -31 -86 -34 0 -7 40 -127 57 -171 3 -8
7 -19 9 -25 1 -5 28 -84 59 -175 31 -91 59 -173 62 -183 3 -10 11 -16 17 -14
7 3 68 22 137 42 400 118 642 293 798 578 64 117 120 284 137 412 3 28 9 54
12 59 3 5 6 181 7 390 3 412 8 464 59 551 57 96 118 122 296 124 68 1 127 4
130 7 3 3 5 153 6 333 l0 327 -116 1 c-214 2 -297 47 -344 186 -26 77 -28 111
-31 482 -2 313 -7 416 -20 465 -2 8 -7 35 -10 60 -4 24 -22 91 -41 148 -93
278 -254 477 -501 621 -123 71 -241 116 -479 185 l-52 14 -97 -284z"/>
</g>
</svg>
